<svg width="375" height="334" viewBox="0 0 375 334" fill="none" xmlns="http://www.w3.org/2000/svg">
<path fill-rule="evenodd" clip-rule="evenodd" d="M315.795 100.775C315.582 100.619 315.074 100.564 314.839 100.518C313.858 100.324 312.848 100.24 311.848 100.24C308.766 100.245 305.634 100.548 302.603 101.072C300.679 101.404 298.352 102.524 296.438 101.916C293.103 100.856 289.732 100.909 286.568 102.421C283.675 103.804 281.479 106.431 280.197 109.269C280.004 109.697 279.219 111.274 278.998 112.337C278.903 112.554 278.811 112.773 278.729 112.995C278.496 113.626 278.286 114.267 278.092 114.91C278.009 115.185 277.8 115.79 278.048 115.907C277.652 116.64 277.3 117.394 277.008 118.173C276.156 120.44 275.225 122.926 274.926 125.327C274.815 126.217 274.811 127.111 274.914 128.002C274.965 128.443 274.944 129.328 275.242 129.663C275.875 130.374 276.2 129.379 276.129 128.905C275.584 125.294 276.637 121.903 277.884 118.508C278.691 116.313 280.016 114.305 281.501 112.487C282.702 111.014 283.991 109.855 285.638 108.879C287.653 107.686 289.806 106.721 291.939 105.753C293.343 105.116 294.748 104.496 296.19 103.948C296.511 103.826 297.016 103.512 297.371 103.511C298.123 103.509 299.189 104.064 299.916 104.271C302.305 104.951 304.725 105.821 307.195 106.168C308.779 106.391 310.263 106.14 311.744 105.612C311.895 105.558 312.149 105.42 312.46 105.222C313.56 104.798 314.6 104.265 315.506 103.496C316.028 103.054 316.502 102.481 316.934 101.957C317.063 101.801 317.12 101.621 317.122 101.45C317.22 101.399 317.285 101.339 317.3 101.269C317.407 100.754 316.425 100.745 315.795 100.775Z" fill="#89C5CC"/>
<path fill-rule="evenodd" clip-rule="evenodd" d="M65.4138 143.761C64.8092 144.251 64.2163 144.751 63.6378 145.272C63.1967 145.669 62.4162 146.144 62.258 146.746C62.0933 147.371 62.6129 147.956 63.0232 148.333C65.1935 150.332 67.6374 151.683 70.6446 151.907C75.2752 152.254 79.3052 151.07 83.3229 148.742C86.145 147.106 88.0144 144.686 88.4226 141.419C91.7836 142.817 95.034 144.744 97.7964 147.109C99.1594 148.276 100.333 149.568 101.419 151.001C102.115 151.92 102.787 152.852 103.411 153.821C103.683 154.241 103.959 154.988 104.407 155.23C104.933 155.515 105.568 155.069 105.542 154.484C105.52 153.996 104.995 153.432 104.749 153.033C104.341 152.372 103.927 151.715 103.491 151.072C102.785 150.031 102.055 149.005 101.26 148.031C99.4711 145.841 97.1959 144.033 94.8373 142.491C90.3124 139.533 85.3465 137.669 79.8409 137.511C76.4555 137.414 73.6077 138.572 70.7127 140.3C68.9102 141.377 67.0496 142.435 65.4138 143.761Z" fill="#DDE3E9"/>
<path fill-rule="evenodd" clip-rule="evenodd" d="M109.328 129.452C105.8 125.816 102.26 122.226 98.3185 119.024C95.9956 117.137 93.5477 115.422 91.1502 113.633C91.4267 113.875 91.6979 114.125 91.9627 114.38C91.2143 113.872 90.2348 113.584 89.4415 113.114C88.5565 112.589 87.7103 111.989 86.8806 111.383C85.2608 110.202 83.6655 108.998 82.0004 107.879C80.1454 106.631 78.2232 105.479 76.3365 104.279C74.7352 103.26 73.1146 102.145 71.4014 101.312C70.468 100.858 69.5325 100.321 68.595 99.8471C68.2812 99.6888 65.0978 97.6771 65.1058 97.6711C65.2817 97.5384 66.8838 98.2914 67.1314 98.3928C67.855 98.6888 68.5473 99.0424 69.2428 99.3952C68.861 98.6414 68.5589 97.8495 68.3942 97.0155C68.3434 96.7585 67.9363 94.8848 68.1446 94.7277C68.2484 94.6495 69.264 98.0011 69.3161 98.3235C69.3586 98.5849 69.3522 98.9618 69.4379 99.21C69.5761 99.6102 69.5693 99.4891 69.8738 99.7148C70.4319 100.128 71.1727 100.386 71.7764 100.732C72.1026 100.914 73.111 101.635 73.7184 101.841C75.5561 102.734 77.4191 104.109 79.1655 105.25C78.7071 104.388 78.3582 103.487 78.1042 102.542C78.0437 102.318 77.3906 100.306 77.5493 100.187C77.7276 100.052 78.9712 103.125 79.0449 103.416C79.1815 103.956 79.2099 104.558 79.3814 105.083C79.5693 105.66 80.1562 105.865 80.6851 106.201C82.631 107.439 84.5104 108.753 86.3582 110.129C88.3746 106.54 86.0497 102.206 84.0905 99.1948C82.6779 97.0244 80.7768 95.1639 78.7692 93.5396C76.0897 91.3716 73.0244 89.6399 69.9627 88.0557C66.3954 86.2101 62.5397 85.0661 58.5309 84.5381C56.4343 84.2614 54.2897 84.2694 52.1719 84.358C51.1374 84.4013 50.1442 84.5385 49.153 84.8761C48.7059 85.0284 48.274 85.2205 47.8534 85.4354C47.5337 85.5986 46.76 85.771 46.5765 86.0144C45.0629 87.9859 44.2889 89.9502 44.4071 92.4274C44.5188 94.7722 45.2588 97.1182 46.2628 99.21C47.3814 101.539 48.8197 103.653 50.7011 105.427C52.1362 106.781 53.7408 107.959 55.3349 109.121C61.0044 113.256 68.1923 116.853 75.5353 115.929C77.9123 115.63 80.1731 114.798 82.2857 113.668C82.7837 113.401 83.2784 113.132 83.7484 112.817C84.0653 112.605 84.9123 111.65 85.2308 111.615C85.6679 111.568 86.6086 112.457 87.0184 112.728C90.133 114.785 93.1659 116.954 96.135 119.211C99.2945 121.612 102.298 124.176 105.214 126.861C106.454 128.003 107.687 129.148 108.891 130.328C109.171 130.603 109.857 131.614 110.365 131.66C110.686 131.689 110.903 131.414 110.857 131.116C110.778 130.599 109.689 129.825 109.328 129.452Z" fill="#C1DEE2"/>
<path fill-rule="evenodd" clip-rule="evenodd" d="M312.091 115.34C310.725 115.042 309.216 115.064 307.824 115.089C300.359 115.191 293.028 118.728 288.257 124.38C284.195 129.191 283.078 135.174 282.276 141.221C282.196 141.821 282.162 142.418 282.117 143.02C282.108 143.149 282.093 143.264 282.078 143.373C281.763 143.655 281.597 143.984 281.784 144.346C281.089 145.868 280.5 147.429 279.996 149.039C278.511 153.779 277 158.608 277.93 163.592C278.148 160.849 278.605 158.045 279.152 155.347C279.184 155.193 279.218 155.039 279.253 154.886C279.257 154.87 279.26 154.853 279.264 154.837C279.457 154.011 279.709 153.21 280.015 152.421C280.018 152.413 280.021 152.404 280.025 152.396C280.065 152.292 280.108 152.189 280.15 152.085C280.238 151.872 280.328 151.658 280.424 151.446C280.456 151.374 280.487 151.301 280.517 151.227C280.962 150.134 281.15 148.903 281.55 147.772C281.645 147.515 281.745 147.259 281.849 147.004C281.856 146.989 281.862 146.974 281.868 146.959C282.151 146.273 282.463 145.596 282.794 144.926C282.973 144.791 283.069 144.456 283.224 144.151C283.256 144.091 283.506 143.691 283.581 143.461C283.775 143.084 283.969 142.708 284.165 142.332C284.159 142.334 284.153 142.336 284.147 142.339C284.343 141.977 284.54 141.618 284.735 141.26C284.778 141.181 284.821 141.103 284.864 141.024C284.934 140.898 285.004 140.773 285.074 140.648C285.728 139.476 286.422 138.329 287.142 137.195C287.399 136.791 288.012 136.211 288.13 135.757C288.135 135.74 288.136 135.724 288.138 135.708C289.701 133.511 291.499 131.486 293.657 129.881C293.396 130.163 292.841 131.12 292.695 131.31C292.246 131.89 291.76 132.43 291.271 132.977C290.396 133.956 289.542 134.967 288.783 136.035C287.394 137.99 286.196 140.046 285.064 142.144C285.053 142.156 285.041 142.168 285.031 142.181C284.462 142.883 284.104 143.944 283.694 144.747C285.315 143.996 287.108 143.506 288.772 142.839C290.431 142.174 292.045 141.433 293.603 140.563C295.674 139.407 297.823 138.102 299.78 136.624C302.022 135.232 303.907 133.316 305.57 131.305C307.538 128.926 309.342 126.526 310.457 123.637C311.005 122.218 311.436 120.738 311.692 119.24C311.703 119.175 311.717 119.104 311.733 119.031C311.994 118.513 312.228 117.985 312.424 117.444C312.736 116.586 313.472 115.642 312.091 115.34Z" fill="#69A1AC"/>
<path fill-rule="evenodd" clip-rule="evenodd" d="M52.2003 119.893C51.6586 119.352 51.0504 118.865 50.3365 118.517C50.1558 118.429 48.8113 117.84 48.7235 117.97C48.5196 118.27 52.0376 119.72 52.2003 119.893ZM58.5757 116.283C58.5713 116.306 59.0376 117.035 59.1646 117.259C59.4347 117.736 59.6843 118.222 59.919 118.709C59.5717 117.849 59.2147 117.052 58.5757 116.283ZM25.9688 122.218C25.5197 122.351 24.9798 121.826 25.5623 121.697C26.0336 121.593 26.0105 121.568 26.2221 121.219C26.394 120.934 26.4998 120.588 26.6506 120.29C26.9705 119.657 27.3333 119.054 27.7787 118.489C28.7332 117.278 29.8962 116.234 31.2006 115.355C33.477 113.82 36.0293 112.417 38.7368 111.712C43.0416 110.591 47.9415 110.522 52.2532 111.299C54.9234 111.78 57.3642 112.616 59.137 114.598C60.0232 115.588 60.7191 116.748 61.0232 118.026C61.1025 118.359 61.0877 118.731 61.1871 119.058C61.3397 119.56 61.2724 119.426 61.9102 119.524C62.6069 119.631 63.3029 119.74 63.9984 119.851C65.8201 120.141 67.6526 120.45 69.4275 120.921C70.012 121.076 70.5833 121.265 71.1414 121.486C71.5633 121.652 73.2444 122.174 73.4487 122.68C73.7888 123.521 72.6494 123.139 72.2956 122.956C71.9855 122.796 71.667 122.646 71.3441 122.509C70.5308 122.162 69.6835 121.894 68.8169 121.68C67.8806 121.449 66.925 121.277 65.9731 121.104C65.0857 120.943 64.1947 120.797 63.3025 120.657C62.8069 120.58 62.3109 120.504 61.8149 120.428C61.6454 120.403 61.3469 120.268 61.3694 120.47C60.3265 120.285 59.1987 120.312 58.1366 120.261C56.8357 120.199 55.5296 120.147 54.2243 120.185C53.2828 120.212 52.3405 120.269 51.4038 120.385C50.8565 120.453 50.3181 120.553 49.7808 120.679C49.4859 120.749 48.3229 120.896 48.1622 121.132C48.2311 121.031 49.5148 121.13 49.6783 121.124C50.3317 121.101 50.9803 121.041 51.6314 120.975C52.8397 120.85 54.0488 120.785 55.2608 120.794C55.2564 120.991 54.4283 121.34 54.2259 121.47C53.7728 121.761 53.3389 122.079 52.9339 122.428C52.2207 123.042 51.3666 123.803 50.873 124.531C51.0184 124.316 51.7359 124.037 51.9904 123.873C52.3982 123.611 52.7976 123.331 53.1758 123.031C53.5248 122.755 53.8505 122.456 54.1706 122.151C54.4908 121.846 54.9254 121.211 55.3461 121.008C55.3718 120.996 55.5553 121.129 55.6594 121.084C55.7644 121.038 55.895 120.809 55.9218 120.8C56.3137 120.661 57.0573 120.834 57.4691 120.852C58.5372 120.897 59.6041 120.956 60.671 121.011C61.0016 121.027 61.2828 120.958 61.4074 121.183C61.5404 121.422 61.2968 122.052 61.2275 122.313C60.9699 123.283 60.5132 124.153 59.7936 124.904C58.4467 126.31 56.7852 127.248 54.9086 127.876C47.7207 130.279 40.0733 131.242 32.8875 128.742C29.9126 127.707 25.4323 125.857 25.9688 122.218Z" fill="#89C5CC"/>
<mask id="mask0_270_302" style="mask-type:alpha" maskUnits="userSpaceOnUse" x="19" y="167" width="337" height="110">
<path d="M355.237 167.186H19.7635V276.465H355.237V167.186Z" fill="white"/>
</mask>
<g mask="url(#mask0_270_302)">
<g opacity="0.6">
<path fill-rule="evenodd" clip-rule="evenodd" d="M354.954 235.439C359.842 265.946 241.297 285.844 139.263 271.958C37.2285 258.071 -9.58 203.843 39.1091 174.948C87.7981 146.053 350.066 204.933 354.954 235.439Z" fill="#DDE3E9"/>
</g>
</g>
<mask id="mask1_270_302" style="mask-type:alpha" maskUnits="userSpaceOnUse" x="94" y="52" width="65" height="123">
<path d="M158.253 52.9268H94.5513V174.017H158.253V52.9268Z" fill="white"/>
</mask>
<g mask="url(#mask1_270_302)">
<path d="M155.048 52.9268H97.7564C95.9863 52.9268 94.5513 54.3629 94.5513 56.1344V170.809C94.5513 172.581 95.9863 174.017 97.7564 174.017H155.048C156.818 174.017 158.253 172.581 158.253 170.809V56.1344C158.253 54.3629 156.818 52.9268 155.048 52.9268Z" fill="#F2F2F2"/>
<path fill-rule="evenodd" clip-rule="evenodd" d="M126.202 166.399C129.521 166.399 132.211 163.706 132.211 160.384C132.211 157.063 129.521 154.37 126.202 154.37C122.883 154.37 120.192 157.063 120.192 160.384C120.192 163.706 122.883 166.399 126.202 166.399Z" fill="white"/>
<path fill-rule="evenodd" clip-rule="evenodd" d="M120.994 60.946C121.436 60.946 121.795 60.5871 121.795 60.1441C121.795 59.701 121.436 59.3422 120.994 59.3422C120.551 59.3422 120.192 59.701 120.192 60.1441C120.192 60.5871 120.551 60.946 120.994 60.946Z" fill="white"/>
<path d="M131.41 59.3422H124.599C124.157 59.3422 123.798 59.7012 123.798 60.1441C123.798 60.587 124.157 60.946 124.599 60.946H131.41C131.853 60.946 132.212 60.587 132.212 60.1441C132.212 59.7012 131.853 59.3422 131.41 59.3422Z" fill="white"/>
<mask id="mask2_270_302" style="mask-type:alpha" maskUnits="userSpaceOnUse" x="100" y="64" width="53" height="82">
<path d="M152.644 64.1537H100.16V145.95H152.644V64.1537Z" fill="white"/>
</mask>
<g mask="url(#mask2_270_302)">
<mask id="mask3_270_302" style="mask-type:alpha" maskUnits="userSpaceOnUse" x="100" y="64" width="53" height="22">
<path d="M152.644 64.1537H100.16V85.8055H152.644V64.1537Z" fill="white"/>
</mask>
<g mask="url(#mask3_270_302)">
<path d="M151.042 64.1537H101.763C100.878 64.1537 100.16 64.8718 100.16 65.7575V84.2017C100.16 85.0875 100.878 85.8055 101.763 85.8055H151.042C151.927 85.8055 152.644 85.0875 152.644 84.2017V65.7575C152.644 64.8718 151.927 64.1537 151.042 64.1537Z" fill="white"/>
<mask id="mask4_270_302" style="mask-type:alpha" maskUnits="userSpaceOnUse" x="115" y="70" width="31" height="10">
<path d="M145.032 70.6493H115.785V79.31H145.032V70.6493Z" fill="white"/>
</mask>
<g mask="url(#mask4_270_302)">
<path d="M143.83 70.6493H116.987C116.323 70.6493 115.785 71.1878 115.785 71.8522V72.6942C115.785 73.3585 116.323 73.8971 116.987 73.8971H143.83C144.494 73.8971 145.032 73.3585 145.032 72.6942V71.8522C145.032 71.1878 144.494 70.6493 143.83 70.6493Z" fill="#DDE3E9"/>
<path d="M134.215 76.0623H116.987C116.323 76.0623 115.785 76.6008 115.785 77.2651V78.1072C115.785 78.7715 116.323 79.31 116.987 79.31H134.215C134.879 79.31 135.417 78.7715 135.417 78.1072V77.2651C135.417 76.6008 134.879 76.0623 134.215 76.0623Z" fill="#DDE3E9"/>
</g>
<path fill-rule="evenodd" clip-rule="evenodd" d="M108.574 79.7911C111.229 79.7911 113.381 77.6368 113.381 74.9796C113.381 72.3225 111.229 70.1681 108.574 70.1681C105.919 70.1681 103.766 72.3225 103.766 74.9796C103.766 77.6368 105.919 79.7911 108.574 79.7911Z" fill="#C5CFD6"/>
</g>
<mask id="mask5_270_302" style="mask-type:alpha" maskUnits="userSpaceOnUse" x="100" y="89" width="53" height="17">
<path d="M152.644 89.0132H100.16V105.854H152.644V89.0132Z" fill="white"/>
</mask>
<g mask="url(#mask5_270_302)">
<path d="M151.042 89.0132H101.763C100.878 89.0132 100.16 89.7312 100.16 90.617V104.25C100.16 105.135 100.878 105.854 101.763 105.854H151.042C151.927 105.854 152.644 105.135 152.644 104.25V90.617C152.644 89.7312 151.927 89.0132 151.042 89.0132Z" fill="white"/>
<mask id="mask6_270_302" style="mask-type:alpha" maskUnits="userSpaceOnUse" x="115" y="94" width="31" height="7">
<path d="M145.032 94.0653H115.785V100.801H145.032V94.0653Z" fill="white"/>
</mask>
<g mask="url(#mask6_270_302)">
<path d="M143.83 94.0653H116.987C116.323 94.0653 115.785 94.6039 115.785 95.2682V95.3885C115.785 96.0528 116.323 96.5914 116.987 96.5914H143.83C144.494 96.5914 145.032 96.0528 145.032 95.3885V95.2682C145.032 94.6039 144.494 94.0653 143.83 94.0653Z" fill="#DDE3E9"/>
<path d="M134.215 98.2754H116.987C116.323 98.2754 115.785 98.8139 115.785 99.4783V99.5986C115.785 100.263 116.323 100.801 116.987 100.801H134.215C134.879 100.801 135.417 100.263 135.417 99.5986V99.4783C135.417 98.8139 134.879 98.2754 134.215 98.2754Z" fill="#DDE3E9"/>
</g>
<path fill-rule="evenodd" clip-rule="evenodd" d="M108.574 102.245C111.229 102.245 113.381 100.091 113.381 97.4334C113.381 94.7762 111.229 92.6218 108.574 92.6218C105.919 92.6218 103.766 94.7762 103.766 97.4334C103.766 100.091 105.919 102.245 108.574 102.245Z" fill="#C5CFD6"/>
</g>
<mask id="mask7_270_302" style="mask-type:alpha" maskUnits="userSpaceOnUse" x="100" y="109" width="53" height="17">
<path d="M152.644 109.061H100.16V125.902H152.644V109.061Z" fill="white"/>
</mask>
<g mask="url(#mask7_270_302)">
<path d="M151.042 109.061H101.763C100.878 109.061 100.16 109.779 100.16 110.665V124.298C100.16 125.184 100.878 125.902 101.763 125.902H151.042C151.927 125.902 152.644 125.184 152.644 124.298V110.665C152.644 109.779 151.927 109.061 151.042 109.061Z" fill="white"/>
<mask id="mask8_270_302" style="mask-type:alpha" maskUnits="userSpaceOnUse" x="115" y="114" width="31" height="7">
<path d="M145.032 114.113H115.785V120.85H145.032V114.113Z" fill="white"/>
</mask>
<g mask="url(#mask8_270_302)">
<path d="M143.83 114.113H116.987C116.323 114.113 115.785 114.652 115.785 115.316V115.437C115.785 116.101 116.323 116.639 116.987 116.639H143.83C144.494 116.639 145.032 116.101 145.032 115.437V115.316C145.032 114.652 144.494 114.113 143.83 114.113Z" fill="#DDE3E9"/>
<path d="M134.215 118.323H116.987C116.323 118.323 115.785 118.862 115.785 119.526V119.647C115.785 120.311 116.323 120.85 116.987 120.85H134.215C134.879 120.85 135.417 120.311 135.417 119.647V119.526C135.417 118.862 134.879 118.323 134.215 118.323Z" fill="#DDE3E9"/>
</g>
<path fill-rule="evenodd" clip-rule="evenodd" d="M108.574 122.293C111.229 122.293 113.381 120.139 113.381 117.481C113.381 114.824 111.229 112.67 108.574 112.67C105.919 112.67 103.766 114.824 103.766 117.481C103.766 120.139 105.919 122.293 108.574 122.293Z" fill="#AFB9C5"/>
</g>
<mask id="mask9_270_302" style="mask-type:alpha" maskUnits="userSpaceOnUse" x="100" y="129" width="53" height="17">
<path d="M152.644 129.109H100.16V145.95H152.644V129.109Z" fill="white"/>
</mask>
<g mask="url(#mask9_270_302)">
<path d="M151.042 129.109H101.763C100.878 129.109 100.16 129.827 100.16 130.713V144.346C100.16 145.232 100.878 145.95 101.763 145.95H151.042C151.927 145.95 152.644 145.232 152.644 144.346V130.713C152.644 129.827 151.927 129.109 151.042 129.109Z" fill="white"/>
<mask id="mask10_270_302" style="mask-type:alpha" maskUnits="userSpaceOnUse" x="115" y="134" width="31" height="7">
<path d="M145.032 134.161H115.785V140.898H145.032V134.161Z" fill="white"/>
</mask>
<g mask="url(#mask10_270_302)">
<path d="M143.83 134.161H116.987C116.323 134.161 115.785 134.7 115.785 135.364V135.485C115.785 136.149 116.323 136.687 116.987 136.687H143.83C144.494 136.687 145.032 136.149 145.032 135.485V135.364C145.032 134.7 144.494 134.161 143.83 134.161Z" fill="#DDE3E9"/>
<path d="M134.215 138.371H116.987C116.323 138.371 115.785 138.91 115.785 139.574V139.695C115.785 140.359 116.323 140.898 116.987 140.898H134.215C134.879 140.898 135.417 140.359 135.417 139.695V139.574C135.417 138.91 134.879 138.371 134.215 138.371Z" fill="#DDE3E9"/>
</g>
<path fill-rule="evenodd" clip-rule="evenodd" d="M108.574 142.341C111.229 142.341 113.381 140.187 113.381 137.529C113.381 134.872 111.229 132.718 108.574 132.718C105.919 132.718 103.766 134.872 103.766 137.529C103.766 140.187 105.919 142.341 108.574 142.341Z" fill="#C5CFD6"/>
</g>
</g>
</g>
<mask id="mask11_270_302" style="mask-type:alpha" maskUnits="userSpaceOnUse" x="101" y="63" width="84" height="122">
<path d="M184.696 63.3517H101.763V184.442H184.696V63.3517Z" fill="white"/>
</mask>
<g mask="url(#mask11_270_302)">
<path fill-rule="evenodd" clip-rule="evenodd" d="M106.627 150.761C106.096 150.761 105.566 150.772 105.036 150.799C104.632 150.82 104.015 150.737 103.673 150.989C103.318 151.251 103.342 151.786 103.398 152.165C103.691 154.166 104.407 155.941 105.905 157.359C108.211 159.542 110.855 160.652 113.984 161.146C116.182 161.493 118.211 161.011 119.828 159.447C121.011 161.643 121.907 164.072 122.357 166.525C122.579 167.735 122.647 168.931 122.608 170.163C122.583 170.952 122.54 171.739 122.455 172.525C122.418 172.866 122.244 173.382 122.378 173.705C122.534 174.084 123.063 174.121 123.3 173.797C123.498 173.529 123.461 173.001 123.502 172.683C123.569 172.154 123.631 171.625 123.676 171.094C123.748 170.235 123.802 169.374 123.798 168.511C123.789 166.573 123.358 164.627 122.769 162.788C121.639 159.258 119.806 156.121 116.955 153.66C115.202 152.147 113.196 151.534 110.92 151.205C109.502 151 108.062 150.761 106.627 150.761Z" fill="#89C5CC"/>
<path fill-rule="evenodd" clip-rule="evenodd" d="M114.812 164.795C109.083 164.795 105.225 169.415 103.401 174.218C102.713 176.028 102.552 178.016 102.287 179.916C102.202 180.527 102.234 181.456 101.986 181.999C101.896 182.197 101.69 182.267 101.789 182.536C101.849 182.698 101.965 182.798 102.141 182.83C102.501 182.897 103.011 182.504 103.32 182.349C105.882 181.063 107.566 179.074 108.939 176.641C109.791 175.133 110.655 173.567 111.16 171.912C111.469 170.9 111.649 169.835 111.755 168.786C111.797 168.372 111.837 167.949 111.834 167.534C111.832 167.121 111.64 166.903 111.502 166.544C113.414 165.82 115.571 165.623 117.508 166.373C119.299 167.067 120.786 168.409 121.619 170.094C121.835 170.532 122.002 170.994 122.124 171.465C122.204 171.774 122.207 172.174 122.355 172.453C122.712 173.13 123.465 172.678 123.393 172.048C123.191 170.291 122.187 168.527 120.903 167.306C119.285 165.765 117.091 164.795 114.812 164.795Z" fill="#89C5CC"/>
<path d="M181.49 63.3517H124.199C122.429 63.3517 120.994 64.7878 120.994 66.5594V181.234C120.994 183.006 122.429 184.442 124.199 184.442H181.49C183.261 184.442 184.696 183.006 184.696 181.234V66.5594C184.696 64.7878 183.261 63.3517 181.49 63.3517Z" fill="#DDE3E9"/>
<path fill-rule="evenodd" clip-rule="evenodd" d="M152.644 176.823C155.963 176.823 158.654 174.131 158.654 170.809C158.654 167.488 155.963 164.795 152.644 164.795C149.325 164.795 146.635 167.488 146.635 170.809C146.635 174.131 149.325 176.823 152.644 176.823Z" fill="white"/>
<path fill-rule="evenodd" clip-rule="evenodd" d="M147.436 71.3709C147.879 71.3709 148.237 71.0121 148.237 70.569C148.237 70.1259 147.879 69.7671 147.436 69.7671C146.993 69.7671 146.635 70.1259 146.635 70.569C146.635 71.0121 146.993 71.3709 147.436 71.3709Z" fill="white"/>
<path d="M157.853 69.7671H151.042C150.599 69.7671 150.24 70.1261 150.24 70.569C150.24 71.0119 150.599 71.3709 151.042 71.3709H157.853C158.295 71.3709 158.654 71.0119 158.654 70.569C158.654 70.1261 158.295 69.7671 157.853 69.7671Z" fill="white"/>
<mask id="mask12_270_302" style="mask-type:alpha" maskUnits="userSpaceOnUse" x="126" y="74" width="54" height="83">
<path d="M179.087 74.5786H126.603V156.375H179.087V74.5786Z" fill="white"/>
</mask>
<g mask="url(#mask12_270_302)">
<mask id="mask13_270_302" style="mask-type:alpha" maskUnits="userSpaceOnUse" x="126" y="74" width="54" height="23">
<path d="M179.087 74.5786H126.603V96.2305H179.087V74.5786Z" fill="white"/>
</mask>
<g mask="url(#mask13_270_302)">
<path d="M177.484 74.5786H128.205C127.32 74.5786 126.603 75.2967 126.603 76.1825V94.6266C126.603 95.5124 127.32 96.2305 128.205 96.2305H177.484C178.369 96.2305 179.087 95.5124 179.087 94.6266V76.1825C179.087 75.2967 178.369 74.5786 177.484 74.5786Z" fill="white"/>
<mask id="mask14_270_302" style="mask-type:alpha" maskUnits="userSpaceOnUse" x="130" y="81" width="30" height="9">
<path d="M159.455 81.0742H130.208V89.735H159.455V81.0742Z" fill="white"/>
</mask>
<g mask="url(#mask14_270_302)">
<path d="M158.253 81.0742H131.41C130.746 81.0742 130.208 81.6128 130.208 82.2771V83.1191C130.208 83.7835 130.746 84.322 131.41 84.322H158.253C158.917 84.322 159.455 83.7835 159.455 83.1191V82.2771C159.455 81.6128 158.917 81.0742 158.253 81.0742Z" fill="#DDE3E9"/>
<path d="M148.638 86.4872H131.41C130.746 86.4872 130.208 87.0257 130.208 87.6901V88.5321C130.208 89.1964 130.746 89.735 131.41 89.735H148.638C149.302 89.735 149.84 89.1964 149.84 88.5321V87.6901C149.84 87.0257 149.302 86.4872 148.638 86.4872Z" fill="#DDE3E9"/>
</g>
<path fill-rule="evenodd" clip-rule="evenodd" d="M173.478 88.2112C175.026 88.2112 176.282 86.9546 176.282 85.4045C176.282 83.8544 175.026 82.5978 173.478 82.5978C171.929 82.5978 170.673 83.8544 170.673 85.4045C170.673 86.9546 171.929 88.2112 173.478 88.2112Z" fill="#DDE3E9"/>
<path fill-rule="evenodd" clip-rule="evenodd" d="M173.478 86.6074C174.141 86.6074 174.679 86.0689 174.679 85.4045C174.679 84.7401 174.141 84.2017 173.478 84.2017C172.814 84.2017 172.276 84.7401 172.276 85.4045C172.276 86.0689 172.814 86.6074 173.478 86.6074Z" fill="#F2F2F2"/>
</g>
<mask id="mask15_270_302" style="mask-type:alpha" maskUnits="userSpaceOnUse" x="126" y="99" width="54" height="18">
<path d="M179.087 99.4381H126.603V116.278H179.087V99.4381Z" fill="white"/>
</mask>
<g mask="url(#mask15_270_302)">
<path d="M177.484 99.4381H128.205C127.32 99.4381 126.603 100.156 126.603 101.042V114.675C126.603 115.56 127.32 116.278 128.205 116.278H177.484C178.369 116.278 179.087 115.56 179.087 114.675V101.042C179.087 100.156 178.369 99.4381 177.484 99.4381Z" fill="white"/>
<mask id="mask16_270_302" style="mask-type:alpha" maskUnits="userSpaceOnUse" x="142" y="104" width="30" height="8">
<path d="M171.474 104.49H142.228V111.226H171.474V104.49Z" fill="white"/>
</mask>
<g mask="url(#mask16_270_302)">
<path d="M170.272 104.49H143.429C142.766 104.49 142.228 105.029 142.228 105.693V105.813C142.228 106.478 142.766 107.016 143.429 107.016H170.272C170.936 107.016 171.474 106.478 171.474 105.813V105.693C171.474 105.029 170.936 104.49 170.272 104.49Z" fill="#DDE3E9"/>
<path d="M160.657 108.7H143.429C142.766 108.7 142.228 109.239 142.228 109.903V110.023C142.228 110.688 142.766 111.226 143.429 111.226H160.657C161.321 111.226 161.859 110.688 161.859 110.023V109.903C161.859 109.239 161.321 108.7 160.657 108.7Z" fill="#DDE3E9"/>
</g>
<path fill-rule="evenodd" clip-rule="evenodd" d="M135.016 112.67C137.671 112.67 139.824 110.515 139.824 107.858C139.824 105.201 137.671 103.047 135.016 103.047C132.361 103.047 130.208 105.201 130.208 107.858C130.208 110.515 132.361 112.67 135.016 112.67Z" fill="#C5CFD6"/>
</g>
<mask id="mask17_270_302" style="mask-type:alpha" maskUnits="userSpaceOnUse" x="126" y="119" width="54" height="18">
<path d="M179.087 119.486H126.603V136.327H179.087V119.486Z" fill="white"/>
</mask>
<g mask="url(#mask17_270_302)">
<path d="M177.484 119.486H128.205C127.32 119.486 126.603 120.204 126.603 121.09V134.723C126.603 135.608 127.32 136.327 128.205 136.327H177.484C178.369 136.327 179.087 135.608 179.087 134.723V121.09C179.087 120.204 178.369 119.486 177.484 119.486Z" fill="white"/>
<mask id="mask18_270_302" style="mask-type:alpha" maskUnits="userSpaceOnUse" x="130" y="124" width="30" height="8">
<path d="M159.455 124.538H130.208V131.274H159.455V124.538Z" fill="white"/>
</mask>
<g mask="url(#mask18_270_302)">
<path d="M158.253 124.538H131.41C130.746 124.538 130.208 125.077 130.208 125.741V125.861C130.208 126.526 130.746 127.064 131.41 127.064H158.253C158.917 127.064 159.455 126.526 159.455 125.861V125.741C159.455 125.077 158.917 124.538 158.253 124.538Z" fill="#DDE3E9"/>
<path d="M148.638 128.748H131.41C130.746 128.748 130.208 129.287 130.208 129.951V130.072C130.208 130.736 130.746 131.274 131.41 131.274H148.638C149.302 131.274 149.84 130.736 149.84 130.072V129.951C149.84 129.287 149.302 128.748 148.638 128.748Z" fill="#AFB9C5"/>
</g>
<path fill-rule="evenodd" clip-rule="evenodd" d="M173.478 130.713C175.026 130.713 176.282 129.456 176.282 127.906C176.282 126.356 175.026 125.1 173.478 125.1C171.929 125.1 170.673 126.356 170.673 127.906C170.673 129.456 171.929 130.713 173.478 130.713Z" fill="#DDE3E9"/>
<path fill-rule="evenodd" clip-rule="evenodd" d="M173.478 129.109C174.141 129.109 174.679 128.571 174.679 127.906C174.679 127.242 174.141 126.703 173.478 126.703C172.814 126.703 172.276 127.242 172.276 127.906C172.276 128.571 172.814 129.109 173.478 129.109Z" fill="#F2F2F2"/>
</g>
<mask id="mask19_270_302" style="mask-type:alpha" maskUnits="userSpaceOnUse" x="126" y="139" width="54" height="18">
<path d="M179.087 139.534H126.603V156.375H179.087V139.534Z" fill="white"/>
</mask>
<g mask="url(#mask19_270_302)">
<path d="M177.484 139.534H128.205C127.32 139.534 126.603 140.252 126.603 141.138V154.771C126.603 155.656 127.32 156.375 128.205 156.375H177.484C178.369 156.375 179.087 155.656 179.087 154.771V141.138C179.087 140.252 178.369 139.534 177.484 139.534Z" fill="white"/>
<mask id="mask20_270_302" style="mask-type:alpha" maskUnits="userSpaceOnUse" x="142" y="144" width="30" height="8">
<path d="M171.474 144.586H142.228V151.322H171.474V144.586Z" fill="white"/>
</mask>
<g mask="url(#mask20_270_302)">
<path d="M170.272 144.586H143.429C142.766 144.586 142.228 145.125 142.228 145.789V145.909C142.228 146.574 142.766 147.112 143.429 147.112H170.272C170.936 147.112 171.474 146.574 171.474 145.909V145.789C171.474 145.125 170.936 144.586 170.272 144.586Z" fill="#DDE3E9"/>
<path d="M160.657 148.796H143.429C142.766 148.796 142.228 149.335 142.228 149.999V150.12C142.228 150.784 142.766 151.322 143.429 151.322H160.657C161.321 151.322 161.859 150.784 161.859 150.12V149.999C161.859 149.335 161.321 148.796 160.657 148.796Z" fill="#DDE3E9"/>
</g>
<path fill-rule="evenodd" clip-rule="evenodd" d="M135.016 152.766C137.671 152.766 139.824 150.612 139.824 147.954C139.824 145.297 137.671 143.143 135.016 143.143C132.361 143.143 130.208 145.297 130.208 147.954C130.208 150.612 132.361 152.766 135.016 152.766Z" fill="#C5CFD6"/>
</g>
</g>
</g>
<mask id="mask21_270_302" style="mask-type:alpha" maskUnits="userSpaceOnUse" x="147" y="73" width="135" height="140">
<path d="M281.651 73.3757H147.436V212.108H281.651V73.3757Z" fill="white"/>
</mask>
<g mask="url(#mask21_270_302)">
<path d="M278.446 73.3757H150.641C148.871 73.3757 147.436 74.8119 147.436 76.5834V208.9C147.436 210.672 148.871 212.108 150.641 212.108H278.446C280.216 212.108 281.651 210.672 281.651 208.9V76.5834C281.651 74.8119 280.216 73.3757 278.446 73.3757Z" fill="#F2F2F2"/>
<path d="M272.035 90.6171H250.401C248.631 90.6171 247.196 92.0532 247.196 93.8247V119.887C247.196 121.659 248.631 123.095 250.401 123.095H272.035C273.805 123.095 275.24 121.659 275.24 119.887V93.8247C275.24 92.0532 273.805 90.6171 272.035 90.6171Z" fill="white"/>
<path fill-rule="evenodd" clip-rule="evenodd" d="M261.218 109.462C264.758 109.462 267.628 106.59 267.628 103.047C267.628 99.5035 264.758 96.6315 261.218 96.6315C257.678 96.6315 254.808 99.5035 254.808 103.047C254.808 106.59 257.678 109.462 261.218 109.462Z" fill="#DDE3E9"/>
<path d="M270.032 111.066H252.404C251.74 111.066 251.202 111.605 251.202 112.269C251.202 112.933 251.74 113.472 252.404 113.472H270.032C270.696 113.472 271.234 112.933 271.234 112.269C271.234 111.605 270.696 111.066 270.032 111.066Z" fill="#DDE3E9"/>
<path d="M266.827 115.076H255.609C254.945 115.076 254.407 115.614 254.407 116.278C254.407 116.943 254.945 117.481 255.609 117.481H266.827C267.491 117.481 268.029 116.943 268.029 116.278C268.029 115.614 267.491 115.076 266.827 115.076Z" fill="#DDE3E9"/>
<path d="M147.436 76.5834C147.436 74.812 148.871 73.3757 150.641 73.3757H278.446C280.216 73.3757 281.651 74.812 281.651 76.5834V84.2017H147.436V76.5834Z" fill="#C5CFD6"/>
<path fill-rule="evenodd" clip-rule="evenodd" d="M152.644 80.5931C153.529 80.5931 154.247 79.8749 154.247 78.9892C154.247 78.1035 153.529 77.3854 152.644 77.3854C151.759 77.3854 151.042 78.1035 151.042 78.9892C151.042 79.8749 151.759 80.5931 152.644 80.5931Z" fill="#F2F2F2"/>
<path fill-rule="evenodd" clip-rule="evenodd" d="M157.452 80.5931C158.337 80.5931 159.054 79.8749 159.054 78.9892C159.054 78.1035 158.337 77.3854 157.452 77.3854C156.567 77.3854 155.849 78.1035 155.849 78.9892C155.849 79.8749 156.567 80.5931 157.452 80.5931Z" fill="#F2F2F2"/>
<path fill-rule="evenodd" clip-rule="evenodd" d="M162.26 80.5931C163.145 80.5931 163.862 79.8749 163.862 78.9892C163.862 78.1035 163.145 77.3854 162.26 77.3854C161.375 77.3854 160.657 78.1035 160.657 78.9892C160.657 79.8749 161.375 80.5931 162.26 80.5931Z" fill="#F2F2F2"/>
<mask id="mask22_270_302" style="mask-type:alpha" maskUnits="userSpaceOnUse" x="247" y="126" width="29" height="79">
<path d="M275.24 126.302H247.196V204.089H275.24V126.302Z" fill="white"/>
</mask>
<g mask="url(#mask22_270_302)">
<path d="M272.035 126.302H250.401C248.631 126.302 247.196 127.739 247.196 129.51V200.881C247.196 202.653 248.631 204.089 250.401 204.089H272.035C273.805 204.089 275.24 202.653 275.24 200.881V129.51C275.24 127.739 273.805 126.302 272.035 126.302Z" fill="white"/>
<mask id="mask23_270_302" style="mask-type:alpha" maskUnits="userSpaceOnUse" x="254" y="133" width="15" height="64">
<path d="M268.029 133.52H254.407V196.872H268.029V133.52Z" fill="white"/>
</mask>
<g mask="url(#mask23_270_302)">
<path d="M266.426 133.52H256.01C255.125 133.52 254.407 134.238 254.407 135.124V142.341C254.407 143.227 255.125 143.945 256.01 143.945H266.426C267.311 143.945 268.029 143.227 268.029 142.341V135.124C268.029 134.238 267.311 133.52 266.426 133.52Z" fill="#DDE3E9"/>
<path d="M266.426 147.152H256.01C255.125 147.152 254.407 147.871 254.407 148.756V155.573C254.407 156.458 255.125 157.176 256.01 157.176H266.426C267.311 157.176 268.029 156.458 268.029 155.573V148.756C268.029 147.871 267.311 147.152 266.426 147.152Z" fill="#AFB9C5"/>
<path d="M266.426 160.384H256.01C255.125 160.384 254.407 161.102 254.407 161.988V168.804C254.407 169.69 255.125 170.408 256.01 170.408H266.426C267.311 170.408 268.029 169.69 268.029 168.804V161.988C268.029 161.102 267.311 160.384 266.426 160.384Z" fill="#DDE3E9"/>
<path d="M266.426 186.848H256.01C255.125 186.848 254.407 187.566 254.407 188.451V195.268C254.407 196.153 255.125 196.872 256.01 196.872H266.426C267.311 196.872 268.029 196.153 268.029 195.268V188.451C268.029 187.566 267.311 186.848 266.426 186.848Z" fill="#DDE3E9"/>
<path d="M266.426 173.616H256.01C255.125 173.616 254.407 174.334 254.407 175.22V182.036C254.407 182.922 255.125 183.64 256.01 183.64H266.426C267.311 183.64 268.029 182.922 268.029 182.036V175.22C268.029 174.334 267.311 173.616 266.426 173.616Z" fill="#C5CFD6"/>
</g>
</g>
<mask id="mask24_270_302" style="mask-type:alpha" maskUnits="userSpaceOnUse" x="153" y="91" width="91" height="114">
<path d="M243.99 91.0179H153.846V204.089H243.99V91.0179Z" fill="white"/>
</mask>
<g mask="url(#mask24_270_302)">
<mask id="mask25_270_302" style="mask-type:alpha" maskUnits="userSpaceOnUse" x="153" y="91" width="91" height="19">
<path d="M243.99 91.0179H153.846V109.863H243.99V91.0179Z" fill="white"/>
</mask>
<g mask="url(#mask25_270_302)">
<path d="M242.388 91.0179H155.449C154.564 91.0179 153.846 91.736 153.846 92.6218V108.259C153.846 109.145 154.564 109.863 155.449 109.863H242.388C243.273 109.863 243.99 109.145 243.99 108.259V92.6218C243.99 91.736 243.273 91.0179 242.388 91.0179Z" fill="white"/>
<mask id="mask26_270_302" style="mask-type:alpha" maskUnits="userSpaceOnUse" x="157" y="96" width="68" height="9">
<path d="M224.359 96.6715H157.452V104.21H224.359V96.6715Z" fill="white"/>
</mask>
<g mask="url(#mask26_270_302)">
<path d="M223.157 96.6715H158.654C157.99 96.6715 157.452 97.2101 157.452 97.8744V98.2954C157.452 98.9597 157.99 99.4983 158.654 99.4983H223.157C223.821 99.4983 224.359 98.9597 224.359 98.2954V97.8744C224.359 97.2101 223.821 96.6715 223.157 96.6715Z" fill="#DDE3E9"/>
<path d="M201.16 101.383H158.654C157.99 101.383 157.452 101.921 157.452 102.586V103.007C157.452 103.671 157.99 104.21 158.654 104.21H201.16C201.824 104.21 202.362 103.671 202.362 103.007V102.586C202.362 101.921 201.824 101.383 201.16 101.383Z" fill="#DDE3E9"/>
</g>
<path fill-rule="evenodd" clip-rule="evenodd" d="M234.357 103.247C235.905 103.247 237.161 101.991 237.161 100.441C237.161 98.8904 235.905 97.6338 234.357 97.6338C232.808 97.6338 231.552 98.8904 231.552 100.441C231.552 101.991 232.808 103.247 234.357 103.247Z" fill="#DDE3E9"/>
<path fill-rule="evenodd" clip-rule="evenodd" d="M234.357 101.643C235.02 101.643 235.559 101.105 235.559 100.441C235.559 99.7762 235.02 99.2377 234.357 99.2377C233.693 99.2377 233.155 99.7762 233.155 100.441C233.155 101.105 233.693 101.643 234.357 101.643Z" fill="#F2F2F2"/>
</g>
<mask id="mask27_270_302" style="mask-type:alpha" maskUnits="userSpaceOnUse" x="153" y="113" width="91" height="16">
<path d="M243.99 113.071H153.846V128.708H243.99V113.071Z" fill="white"/>
</mask>
<g mask="url(#mask27_270_302)">
<path d="M242.388 113.071H155.449C154.564 113.071 153.846 113.789 153.846 114.675V127.104C153.846 127.99 154.564 128.708 155.449 128.708H242.388C243.273 128.708 243.99 127.99 243.99 127.104V114.675C243.99 113.789 243.273 113.071 242.388 113.071Z" fill="white"/>
<mask id="mask28_270_302" style="mask-type:alpha" maskUnits="userSpaceOnUse" x="157" y="117" width="68" height="8">
<path d="M224.359 117.762H157.452V124.017H224.359V117.762Z" fill="white"/>
</mask>
<g mask="url(#mask28_270_302)">
<path d="M223.187 117.762H158.624C157.977 117.762 157.452 118.287 157.452 118.935C157.452 119.583 157.977 120.108 158.624 120.108H223.187C223.834 120.108 224.359 119.583 224.359 118.935C224.359 118.287 223.834 117.762 223.187 117.762Z" fill="#DDE3E9"/>
<path d="M201.19 121.672H158.624C157.977 121.672 157.452 122.197 157.452 122.844C157.452 123.492 157.977 124.017 158.624 124.017H201.19C201.837 124.017 202.362 123.492 202.362 122.844C202.362 122.197 201.837 121.672 201.19 121.672Z" fill="#DDE3E9"/>
</g>
<path fill-rule="evenodd" clip-rule="evenodd" d="M234.357 123.696C235.905 123.696 237.161 122.44 237.161 120.889C237.161 119.339 235.905 118.083 234.357 118.083C232.808 118.083 231.552 119.339 231.552 120.889C231.552 122.44 232.808 123.696 234.357 123.696Z" fill="#DDE3E9"/>
<path fill-rule="evenodd" clip-rule="evenodd" d="M234.357 122.092C235.02 122.092 235.559 121.554 235.559 120.89C235.559 120.225 235.02 119.687 234.357 119.687C233.693 119.687 233.155 120.225 233.155 120.89C233.155 121.554 233.693 122.092 234.357 122.092Z" fill="#F2F2F2"/>
</g>
<mask id="mask29_270_302" style="mask-type:alpha" maskUnits="userSpaceOnUse" x="153" y="131" width="91" height="17">
<path d="M243.99 131.916H153.846V147.553H243.99V131.916Z" fill="white"/>
</mask>
<g mask="url(#mask29_270_302)">
<path d="M242.388 131.916H155.449C154.564 131.916 153.846 132.634 153.846 133.52V145.95C153.846 146.835 154.564 147.553 155.449 147.553H242.388C243.273 147.553 243.99 146.835 243.99 145.95V133.52C243.99 132.634 243.273 131.916 242.388 131.916Z" fill="white"/>
<mask id="mask30_270_302" style="mask-type:alpha" maskUnits="userSpaceOnUse" x="157" y="136" width="68" height="7">
<path d="M224.359 136.607H157.452V142.862H224.359V136.607Z" fill="white"/>
</mask>
<g mask="url(#mask30_270_302)">
<path d="M223.187 136.607H158.624C157.977 136.607 157.452 137.132 157.452 137.78C157.452 138.428 157.977 138.953 158.624 138.953H223.187C223.834 138.953 224.359 138.428 224.359 137.78C224.359 137.132 223.834 136.607 223.187 136.607Z" fill="#DDE3E9"/>
<path d="M201.19 140.517H158.624C157.977 140.517 157.452 141.042 157.452 141.689C157.452 142.337 157.977 142.862 158.624 142.862H201.19C201.837 142.862 202.362 142.337 202.362 141.689C202.362 141.042 201.837 140.517 201.19 140.517Z" fill="#DDE3E9"/>
</g>
<path fill-rule="evenodd" clip-rule="evenodd" d="M234.357 142.541C235.905 142.541 237.161 141.285 237.161 139.735C237.161 138.184 235.905 136.928 234.357 136.928C232.808 136.928 231.552 138.184 231.552 139.735C231.552 141.285 232.808 142.541 234.357 142.541Z" fill="#DDE3E9"/>
<path fill-rule="evenodd" clip-rule="evenodd" d="M234.357 140.938C235.02 140.938 235.559 140.399 235.559 139.735C235.559 139.07 235.02 138.532 234.357 138.532C233.693 138.532 233.155 139.07 233.155 139.735C233.155 140.399 233.693 140.938 234.357 140.938Z" fill="#AFB9C5"/>
</g>
<mask id="mask31_270_302" style="mask-type:alpha" maskUnits="userSpaceOnUse" x="153" y="188" width="91" height="17">
<path d="M243.99 188.451H153.846V204.089H243.99V188.451Z" fill="white"/>
</mask>
<g mask="url(#mask31_270_302)">
<path d="M242.388 188.451H155.449C154.564 188.451 153.846 189.169 153.846 190.055V202.485C153.846 203.371 154.564 204.089 155.449 204.089H242.388C243.273 204.089 243.99 203.371 243.99 202.485V190.055C243.99 189.169 243.273 188.451 242.388 188.451Z" fill="white"/>
<mask id="mask32_270_302" style="mask-type:alpha" maskUnits="userSpaceOnUse" x="157" y="193" width="68" height="7">
<path d="M224.359 193.143H157.452V199.398H224.359V193.143Z" fill="white"/>
</mask>
<g mask="url(#mask32_270_302)">
<path d="M223.187 193.143H158.624C157.977 193.143 157.452 193.668 157.452 194.315C157.452 194.963 157.977 195.488 158.624 195.488H223.187C223.834 195.488 224.359 194.963 224.359 194.315C224.359 193.668 223.834 193.143 223.187 193.143Z" fill="#DDE3E9"/>
<path d="M201.19 197.052H158.624C157.977 197.052 157.452 197.577 157.452 198.225C157.452 198.873 157.977 199.398 158.624 199.398H201.19C201.837 199.398 202.362 198.873 202.362 198.225C202.362 197.577 201.837 197.052 201.19 197.052Z" fill="#DDE3E9"/>
</g>
<path fill-rule="evenodd" clip-rule="evenodd" d="M234.357 199.077C235.905 199.077 237.161 197.82 237.161 196.27C237.161 194.72 235.905 193.463 234.357 193.463C232.808 193.463 231.552 194.72 231.552 196.27C231.552 197.82 232.808 199.077 234.357 199.077Z" fill="#DDE3E9"/>
<path fill-rule="evenodd" clip-rule="evenodd" d="M234.357 197.473C235.02 197.473 235.559 196.934 235.559 196.27C235.559 195.606 235.02 195.067 234.357 195.067C233.693 195.067 233.155 195.606 233.155 196.27C233.155 196.934 233.693 197.473 234.357 197.473Z" fill="#F2F2F2"/>
</g>
<mask id="mask33_270_302" style="mask-type:alpha" maskUnits="userSpaceOnUse" x="153" y="169" width="91" height="17">
<path d="M243.99 169.606H153.846V185.244H243.99V169.606Z" fill="white"/>
</mask>
<g mask="url(#mask33_270_302)">
<path d="M242.388 169.606H155.449C154.564 169.606 153.846 170.324 153.846 171.21V183.64C153.846 184.526 154.564 185.244 155.449 185.244H242.388C243.273 185.244 243.99 184.526 243.99 183.64V171.21C243.99 170.324 243.273 169.606 242.388 169.606Z" fill="white"/>
<mask id="mask34_270_302" style="mask-type:alpha" maskUnits="userSpaceOnUse" x="157" y="174" width="68" height="7">
<path d="M224.359 174.297H157.452V180.552H224.359V174.297Z" fill="white"/>
</mask>
<g mask="url(#mask34_270_302)">
<path d="M223.187 174.297H158.624C157.977 174.297 157.452 174.823 157.452 175.47C157.452 176.118 157.977 176.643 158.624 176.643H223.187C223.834 176.643 224.359 176.118 224.359 175.47C224.359 174.823 223.834 174.297 223.187 174.297Z" fill="#DDE3E9"/>
<path d="M201.19 178.207H158.624C157.977 178.207 157.452 178.732 157.452 179.38C157.452 180.027 157.977 180.553 158.624 180.553H201.19C201.837 180.553 202.362 180.027 202.362 179.38C202.362 178.732 201.837 178.207 201.19 178.207Z" fill="#DDE3E9"/>
</g>
<path fill-rule="evenodd" clip-rule="evenodd" d="M234.357 180.232C235.905 180.232 237.161 178.975 237.161 177.425C237.161 175.875 235.905 174.618 234.357 174.618C232.808 174.618 231.552 175.875 231.552 177.425C231.552 178.975 232.808 180.232 234.357 180.232Z" fill="#DDE3E9"/>
<path fill-rule="evenodd" clip-rule="evenodd" d="M234.357 178.628C235.02 178.628 235.559 178.089 235.559 177.425C235.559 176.761 235.02 176.222 234.357 176.222C233.693 176.222 233.155 176.761 233.155 177.425C233.155 178.089 233.693 178.628 234.357 178.628Z" fill="#F2F2F2"/>
</g>
<mask id="mask35_270_302" style="mask-type:alpha" maskUnits="userSpaceOnUse" x="153" y="150" width="91" height="17">
<path d="M243.99 150.761H153.846V166.398H243.99V150.761Z" fill="white"/>
</mask>
<g mask="url(#mask35_270_302)">
<path d="M242.388 150.761H155.449C154.564 150.761 153.846 151.479 153.846 152.365V164.795C153.846 165.68 154.564 166.398 155.449 166.398H242.388C243.273 166.398 243.99 165.68 243.99 164.795V152.365C243.99 151.479 243.273 150.761 242.388 150.761Z" fill="white"/>
<mask id="mask36_270_302" style="mask-type:alpha" maskUnits="userSpaceOnUse" x="157" y="155" width="68" height="7">
<path d="M224.359 155.452H157.452V161.707H224.359V155.452Z" fill="white"/>
</mask>
<g mask="url(#mask36_270_302)">
<path d="M223.187 155.452H158.624C157.977 155.452 157.452 155.977 157.452 156.625C157.452 157.273 157.977 157.798 158.624 157.798H223.187C223.834 157.798 224.359 157.273 224.359 156.625C224.359 155.977 223.834 155.452 223.187 155.452Z" fill="#DDE3E9"/>
<path d="M201.19 159.362H158.624C157.977 159.362 157.452 159.887 157.452 160.534C157.452 161.182 157.977 161.707 158.624 161.707H201.19C201.837 161.707 202.362 161.182 202.362 160.534C202.362 159.887 201.837 159.362 201.19 159.362Z" fill="#DDE3E9"/>
</g>
<path fill-rule="evenodd" clip-rule="evenodd" d="M234.357 161.386C235.905 161.386 237.161 160.13 237.161 158.58C237.161 157.03 235.905 155.773 234.357 155.773C232.808 155.773 231.552 157.03 231.552 158.58C231.552 160.13 232.808 161.386 234.357 161.386Z" fill="#DDE3E9"/>
<path fill-rule="evenodd" clip-rule="evenodd" d="M234.357 159.783C235.02 159.783 235.559 159.244 235.559 158.58C235.559 157.915 235.02 157.377 234.357 157.377C233.693 157.377 233.155 157.915 233.155 158.58C233.155 159.244 233.693 159.783 234.357 159.783Z" fill="#F2F2F2"/>
</g>
</g>
</g>
<path fill-rule="evenodd" clip-rule="evenodd" d="M314.898 141.69C313.318 140.617 311.216 140.336 309.325 140.336C301.939 140.336 294.996 143.079 288.999 147.165C285.712 149.404 282.772 152.256 280.177 155.225C278.679 156.939 277.343 158.792 276.397 160.855C275.759 162.246 275.321 163.697 275.024 165.192C274.662 167.015 274.375 168.875 274.245 170.728C274.193 171.458 273.77 175.33 274.982 175.395C274.975 175.491 274.974 175.582 274.981 175.663C272.349 179.783 270.722 184.61 269.214 189.187C267.902 193.17 266.732 197.187 265.974 201.307C264.974 206.732 264.318 212.239 264.006 217.742C263.939 218.924 263.893 220.107 263.853 221.291C263.819 222.301 263.785 223.311 263.752 224.322C263.715 225.454 263.516 226.757 263.696 227.882C263.853 228.862 264.7 228.713 264.738 227.738C264.783 226.561 264.775 225.381 264.827 224.202C264.895 222.638 264.966 221.074 265.042 219.51C265.575 208.647 267.572 197.944 271.258 187.683C272.75 183.531 274.46 179.6 276.657 175.759C278.588 172.382 280.912 169.112 283.287 166.067C285.595 163.108 287.995 160.217 290.823 157.71C293.119 155.675 295.643 153.903 298.239 152.254C301.535 150.159 304.825 148.115 308.395 146.507C310.252 145.672 312.143 144.924 314.013 144.121C314.35 143.977 314.71 143.837 315.034 143.67C316.114 143.113 315.758 142.274 314.898 141.69Z" fill="#C1DEE2"/>
<path fill-rule="evenodd" clip-rule="evenodd" d="M285.183 179.63C288.179 179.63 290.845 180.02 293.605 181.211C295.988 182.24 298.159 183.601 300.267 185.083C303.232 187.168 305.568 189.593 307.203 192.808C308.18 194.728 308.897 197.445 308.24 199.54C307.468 202.007 305.346 204.064 302.552 203.63C300.824 203.361 299.24 202.216 297.927 201.139C296.355 199.85 295.098 198.3 294.059 196.579C292.365 193.771 291.37 190.597 289.931 187.663C289.248 186.27 288.589 184.868 287.77 183.544C287.366 182.889 286.935 182.24 286.321 181.753C285.992 181.492 284.607 181.042 285.136 180.457C277.368 180.558 270.486 186.53 268.994 193.921C268.855 194.61 268.747 195.304 268.632 195.997C268.56 196.435 268.589 198.049 268.198 198.329C267.336 198.945 267.698 197.072 267.735 196.802C267.831 196.105 267.933 195.408 268.04 194.712C268.622 190.93 270.305 187.413 273.111 184.716C276.32 181.631 280.649 179.63 285.183 179.63Z" fill="#89C5CC"/>
<path fill-rule="evenodd" clip-rule="evenodd" d="M30.0232 192.756C37.5017 205.313 46.2119 217.47 51.4427 231.199C51.2319 229.581 51.0084 227.964 50.758 226.35C49.431 217.793 47.7812 209.299 46.048 200.815C45.1654 196.495 44.2315 192.191 43.274 187.888C42.7592 185.576 42.2504 183.263 41.7247 180.954C41.5973 180.394 41.4879 179.417 41.3289 178.427C46.4122 195.122 51.3145 211.829 54.9002 228.925C55.3706 231.169 55.7712 233.409 56.0993 235.644C56.2115 235.134 56.3221 234.624 56.4427 234.116C57.8938 228.018 60.0701 221.969 62.6614 216.268C63.9002 213.541 65.3229 210.875 66.9984 208.39C68.0432 206.841 70.5072 204.999 71.4599 203.413C66.248 212.981 64.3657 224.952 61.3561 235.353C60.6218 237.891 59.8826 240.425 59.1582 242.964C63.6967 233.855 70.7383 226.371 80.5288 223.128C68.6778 230.964 61.5697 244.688 56.7796 258.724C56.764 258.89 56.7452 259.056 56.7287 259.223C58.1386 256.546 59.9138 254.124 62.3201 252.429C67.4707 248.798 73.1838 249.855 78.1798 252.97C74.2588 250.476 67.1726 252.747 63.8734 255.282C61.5116 257.097 59.4931 259.532 57.7403 261.907C57.3205 262.477 56.7472 263.141 56.1418 263.85C55.2932 269.363 53.9102 274.839 51.9519 280.271C52.2752 278.712 52.0416 276.218 52.1314 275.056C52.141 274.93 52.149 274.804 52.1586 274.679C51.8609 275.868 51.5733 277.044 51.2964 278.201C51.8469 275.993 52.1458 273.689 52.3794 271.36C52.4395 270.36 52.4984 269.359 52.5601 268.359C52.5404 266.459 52.4623 264.553 52.3301 262.643C51.8617 260.788 51.3369 259.037 50.9038 257.581C49.3425 252.328 47.0528 247.296 44.2351 242.601C41.6642 238.317 38.5867 234.437 35.0339 230.927C33.1187 229.035 31.1143 227.234 29.1381 225.408C28.4236 224.748 27.1463 223.124 26.0416 222.278C34.0867 226.717 42.3673 231.519 48.2363 238.671C47.548 236.027 46.8008 233.419 46.0104 230.865C41.9996 217.904 36.9356 204.471 30.0232 192.756Z" fill="#DDE3E9"/>
<path fill-rule="evenodd" clip-rule="evenodd" d="M38.0609 263.832C38.0609 278.226 39.1999 289.894 54.4872 289.894C69.7745 289.894 70.9135 278.226 70.9135 263.832" fill="#C5CFD6"/>
<path d="M250 57.3373C250 56.6729 249.462 56.1344 248.798 56.1344C248.134 56.1344 247.596 56.6729 247.596 57.3373V64.9555C247.596 65.6199 248.134 66.1584 248.798 66.1584C249.462 66.1584 250 65.6199 250 64.9555V57.3373Z" fill="#DDE3E9"/>
<path d="M255.609 50.922C255.609 50.2577 255.071 49.7191 254.407 49.7191C253.743 49.7191 253.205 50.2577 253.205 50.922V64.9556C253.205 65.6199 253.743 66.1585 254.407 66.1585C255.071 66.1585 255.609 65.6199 255.609 64.9556V50.922Z" fill="#DDE3E9"/>
<path d="M261.218 47.7142C261.218 47.0499 260.68 46.5114 260.016 46.5114C259.352 46.5114 258.814 47.0499 258.814 47.7142V64.9555C258.814 65.6199 259.352 66.1584 260.016 66.1584C260.68 66.1584 261.218 65.6199 261.218 64.9555V47.7142Z" fill="#DDE3E9"/>
<path d="M266.827 50.922C266.827 50.2577 266.289 49.7191 265.625 49.7191C264.961 49.7191 264.423 50.2577 264.423 50.922V64.9556C264.423 65.6199 264.961 66.1585 265.625 66.1585C266.289 66.1585 266.827 65.6199 266.827 64.9556V50.922Z" fill="#DDE3E9"/>
<path d="M272.436 44.5066C272.436 43.8423 271.898 43.3037 271.234 43.3037C270.57 43.3037 270.032 43.8423 270.032 44.5066V64.9556C270.032 65.6199 270.57 66.1585 271.234 66.1585C271.898 66.1585 272.436 65.6199 272.436 64.9556V44.5066Z" fill="#C5CFD6"/>
<path fill-rule="evenodd" clip-rule="evenodd" d="M50.4807 166.1C50.4807 161.634 54.0873 157.978 58.4935 157.978V166.1L53.0176 172.012C51.4599 170.567 50.4807 168.446 50.4807 166.1Z" fill="#F2F2F2"/>
<path fill-rule="evenodd" clip-rule="evenodd" d="M58.2816 165.998H66.3734C66.3734 168.091 65.52 170.052 64.1711 171.478C62.6875 173.037 60.5749 174.017 58.2816 174.017C56.1691 174.017 54.2356 173.171 52.7516 171.834L58.2816 165.998Z" fill="#AFB9C5"/>
<path fill-rule="evenodd" clip-rule="evenodd" d="M66.5064 165.998C66.5064 161.588 62.8998 157.978 58.4935 157.978V165.998H66.5064ZM54.4871 157.978L57.6923 165.196L50.4807 161.988C51.1939 160.117 52.7952 158.692 54.4871 157.978Z" fill="#C5CFD6"/>
<path fill-rule="evenodd" clip-rule="evenodd" d="M311.204 169.678C310.435 170.496 309.344 171.01 308.131 171.01C305.8 171.01 303.911 169.125 303.911 166.8C303.911 164.474 305.8 162.589 308.131 162.589V154.771C301.501 154.771 296.074 160.185 296.074 166.8C296.074 173.414 301.501 178.828 308.131 178.828C311.614 178.828 314.762 177.358 316.907 175.02L311.204 169.678Z" fill="#F2F2F2"/>
<path fill-rule="evenodd" clip-rule="evenodd" d="M308.093 154.771V162.589C310.416 162.589 312.3 164.474 312.3 166.8H320.112C320.112 160.185 314.702 154.771 308.093 154.771Z" fill="#AFB9C5"/>
<path fill-rule="evenodd" clip-rule="evenodd" d="M312.138 166.8C312.138 168.166 311.495 169.38 310.497 170.164L315.409 176.423C318.269 174.182 320.112 170.709 320.112 166.8H312.138Z" fill="#C5CFD6"/>
<path fill-rule="evenodd" clip-rule="evenodd" d="M234.796 59.1432C234.204 59.7703 233.365 60.1641 232.432 60.1641C230.639 60.1641 229.186 58.719 229.186 56.9363C229.186 55.1537 230.639 53.7086 232.432 53.7086V47.7142C227.332 47.7142 223.157 51.865 223.157 56.9363C223.157 62.0077 227.332 66.1584 232.432 66.1584C235.111 66.1584 237.532 65.0313 239.183 63.2386L234.796 59.1432Z" fill="#F2F2F2"/>
<path fill-rule="evenodd" clip-rule="evenodd" d="M232.372 47.7142V53.7086C234.153 53.7086 235.597 55.1537 235.597 56.9363H241.587C241.587 51.865 237.439 47.7142 232.372 47.7142Z" fill="#AFB9C5"/>
<path fill-rule="evenodd" clip-rule="evenodd" d="M235.606 56.9364C235.606 57.9609 235.124 58.8718 234.375 59.4596L238.059 64.1537C240.204 62.4733 241.587 59.8682 241.587 56.9364H235.606Z" fill="#C5CFD6"/>
<path fill-rule="evenodd" clip-rule="evenodd" d="M88.9445 66.1527C88.9431 66.1563 88.9416 66.1599 88.9395 66.1643C88.9416 66.1606 88.9445 66.1461 88.9445 66.1527Z" fill="#C5CFD6"/>
<path fill-rule="evenodd" clip-rule="evenodd" d="M88.9414 66.1586C88.9414 66.1594 88.9407 66.1609 88.9407 66.1624C88.9407 66.1586 88.9475 66.1472 88.9414 66.1586Z" fill="#C5CFD6"/>
<path fill-rule="evenodd" clip-rule="evenodd" d="M88.9688 66.0911C88.9632 66.1071 88.956 66.1222 88.9497 66.1382C88.9528 66.1302 88.956 66.1238 88.9592 66.1158C88.8764 66.3237 88.9289 66.1886 88.9688 66.0911Z" fill="#C5CFD6"/>
<path fill-rule="evenodd" clip-rule="evenodd" d="M88.9512 66.1396C88.948 66.1469 88.9447 66.1549 88.9415 66.1621C88.9183 66.207 88.9512 66.1396 88.9512 66.1396Z" fill="#C5CFD6"/>
<path fill-rule="evenodd" clip-rule="evenodd" d="M88.9419 66.1596C88.9419 66.1587 88.9419 66.1587 88.9429 66.1577C88.9419 66.1587 88.9419 66.1587 88.9419 66.1596Z" fill="#C5CFD6"/>
<path fill-rule="evenodd" clip-rule="evenodd" d="M88.9383 66.1635C88.9339 66.1722 88.9586 66.1301 88.9383 66.1635V66.1635Z" fill="#C5CFD6"/>
<path fill-rule="evenodd" clip-rule="evenodd" d="M88.9415 66.1596L88.9434 66.1577C88.9425 66.1587 88.9425 66.1596 88.9415 66.1596Z" fill="#C5CFD6"/>
<path d="M106.17 45.3085H71.3141C70.429 45.3085 69.7115 46.0265 69.7115 46.9123V68.9651C69.7115 69.8509 70.429 70.569 71.3141 70.569H106.17C107.055 70.569 107.772 69.8509 107.772 68.9651V46.9123C107.772 46.0265 107.055 45.3085 106.17 45.3085Z" fill="#DDE3E9"/>
<path fill-rule="evenodd" clip-rule="evenodd" d="M84.1346 52.5258L72.9166 70.569H95.3525L84.1346 52.5258Z" fill="#AFB9C5"/>
<path fill-rule="evenodd" clip-rule="evenodd" d="M95.1523 57.3373L85.3365 70.569H104.968L95.1523 57.3373Z" fill="#C5CFD6"/>
<path fill-rule="evenodd" clip-rule="evenodd" d="M99.3589 57.3373C101.351 57.3373 102.965 55.7218 102.965 53.7286C102.965 51.7355 101.351 50.12 99.3589 50.12C97.3674 50.12 95.7532 51.7355 95.7532 53.7286C95.7532 55.7218 97.3674 57.3373 99.3589 57.3373Z" fill="white"/>
<path fill-rule="evenodd" clip-rule="evenodd" d="M280.045 237.363C280.047 237.366 280.048 237.37 280.05 237.374C280.048 237.371 280.045 237.356 280.045 237.363Z" fill="#C5CFD6"/>
<path fill-rule="evenodd" clip-rule="evenodd" d="M280.049 237.369C280.049 237.369 280.049 237.371 280.049 237.372C280.049 237.369 280.043 237.357 280.049 237.369Z" fill="#C5CFD6"/>
<path fill-rule="evenodd" clip-rule="evenodd" d="M280.021 237.301C280.027 237.317 280.034 237.332 280.04 237.348C280.037 237.34 280.034 237.334 280.031 237.326C280.114 237.534 280.061 237.399 280.021 237.301Z" fill="#C5CFD6"/>
<path fill-rule="evenodd" clip-rule="evenodd" d="M280.039 237.35C280.043 237.357 280.046 237.365 280.049 237.372C280.072 237.417 280.039 237.35 280.039 237.35Z" fill="#C5CFD6"/>
<path fill-rule="evenodd" clip-rule="evenodd" d="M280.049 237.37C280.049 237.369 280.049 237.369 280.048 237.368C280.049 237.369 280.049 237.369 280.049 237.37Z" fill="#C5CFD6"/>
<path fill-rule="evenodd" clip-rule="evenodd" d="M280.051 237.374C280.056 237.382 280.031 237.34 280.051 237.374V237.374Z" fill="#C5CFD6"/>
<path fill-rule="evenodd" clip-rule="evenodd" d="M280.049 237.37L280.047 237.368C280.048 237.369 280.048 237.37 280.049 237.37Z" fill="#C5CFD6"/>
<path d="M253.205 206.495H306.891C307.776 206.495 308.494 207.213 308.494 208.098V242.581C308.494 243.467 307.776 244.185 306.891 244.185H253.205C252.32 244.185 251.603 243.467 251.603 242.581V208.098C251.603 207.213 252.32 206.495 253.205 206.495Z" fill="#DDE3E9"/>
<path fill-rule="evenodd" clip-rule="evenodd" d="M287.369 217.321L303.818 244.185H270.921L287.369 217.321Z" fill="#AFB9C5"/>
<path fill-rule="evenodd" clip-rule="evenodd" d="M270.41 224.516L284.952 244.185H255.869L270.41 224.516Z" fill="#C5CFD6"/>
<path fill-rule="evenodd" clip-rule="evenodd" d="M264.223 224.538C261.236 224.538 258.814 222.114 258.814 219.125C258.814 216.135 261.236 213.712 264.223 213.712C267.21 213.712 269.631 216.135 269.631 219.125C269.631 222.114 267.21 224.538 264.223 224.538Z" fill="white"/>
<path fill-rule="evenodd" clip-rule="evenodd" d="M238.311 149.819C235.392 151.579 232.524 152.43 231.178 152.083C227.802 151.212 227.492 138.853 230.104 133.981C232.716 129.109 246.143 126.985 246.819 136.639C247.054 139.989 245.649 142.979 243.572 145.419L247.296 162.79H236.478L238.311 149.819Z" fill="#B28B67"/>
<path fill-rule="evenodd" clip-rule="evenodd" d="M236.269 128.366C237.695 128.132 241.534 127.971 242.242 127.971C242.694 127.971 243.184 128.074 243.452 127.659C243.671 127.318 243.591 126.743 243.657 126.347C243.733 125.889 243.841 125.436 243.95 124.984C244.261 123.698 244.731 122.475 245.389 121.326C246.623 119.171 248.431 117.483 250.714 116.501C253.234 115.417 256.087 115.169 258.798 115.388C261.699 115.624 264.326 116.582 267.065 117.485C269.676 118.344 272.41 118.682 275.14 118.263C277.891 117.84 279.97 116.347 282.29 114.931C284.665 113.481 287.38 112.533 290.188 112.751C292.81 112.955 295.226 114.038 297.393 115.485C299.421 116.839 301.095 118.468 302.039 120.76C303.056 123.226 303.054 125.933 301.383 128.112C298.961 131.271 294.464 132.088 290.722 132.007C288.558 131.96 286.433 131.565 284.389 130.846C281.665 129.886 279.31 128.261 276.761 126.942C275.564 126.323 274.328 125.814 273.032 125.448C271.774 125.093 270.535 124.93 269.396 125.69C268.191 126.495 267.112 127.285 265.734 127.788C264.411 128.271 263.011 128.541 261.603 128.531C258.862 128.509 256.16 127.655 253.498 127.082C251.328 126.616 249.005 126.151 246.792 126.599C245.869 126.786 244.52 127.173 244.186 128.134C249.8 129.152 252.004 136.1 250.422 141.2C249.568 143.953 244.433 147.171 242.437 145.724C241.173 144.807 241.941 143.603 242.437 142.808C243.389 141.287 243.715 139.332 241.954 138.273C240.435 137.359 238.838 139.529 238.808 139.527C238.391 139.494 234.783 137.452 232.298 134.473C229.847 134.618 229.475 133.001 230.06 131.677C230.645 130.355 234.299 128.689 236.269 128.366Z" fill="#191847"/>
<path fill-rule="evenodd" clip-rule="evenodd" d="M254.492 200.881L237.557 256.401L229.353 303.616H222.92L231.589 200.881H254.492Z" fill="#997659"/>
<path fill-rule="evenodd" clip-rule="evenodd" d="M260.551 200.881C259.401 231.365 260.755 247.088 261.012 249.858C261.27 252.627 264.795 270.585 273.141 304.546L266.286 302.186C253.097 271.038 248.602 254.85 247.089 250.76C245.576 246.67 241.558 230.044 235.035 200.881H260.551Z" fill="#B28B67"/>
<path fill-rule="evenodd" clip-rule="evenodd" d="M271.94 301.604C272.368 301.412 272.879 301.604 273.041 302.045C273.371 302.948 273.845 304.382 273.845 305.177C273.845 306.398 273.439 308.74 273.439 308.74C272.027 308.74 248.055 308.74 248.055 308.74C248.055 308.74 247.066 305.459 249.198 305.198C251.33 304.936 252.74 304.726 252.74 304.726L264.584 299.431C264.79 299.339 265.032 299.435 265.118 299.645L265.895 301.536C265.895 301.536 267.869 302.46 269.103 302.46C269.885 302.46 271.131 301.966 271.94 301.604Z" fill="#E4E4E4"/>
<path fill-rule="evenodd" clip-rule="evenodd" d="M229.635 301.604C230.063 301.412 230.574 301.604 230.736 302.045C231.066 302.948 231.54 304.382 231.54 305.177C231.54 306.398 231.134 308.74 231.134 308.74C229.722 308.74 205.75 308.74 205.75 308.74C205.75 308.74 204.761 305.459 206.893 305.198C209.024 304.936 210.435 304.726 210.435 304.726L222.279 299.431C222.485 299.339 222.727 299.435 222.812 299.645L223.59 301.536C223.59 301.536 225.564 302.46 226.798 302.46C227.58 302.46 228.826 301.966 229.635 301.604Z" fill="#E4E4E4"/>
<path fill-rule="evenodd" clip-rule="evenodd" d="M256.743 200.881L249.542 229.168H227.548L230.827 200.881H256.743Z" fill="#69A1AC"/>
<path fill-rule="evenodd" clip-rule="evenodd" d="M260.793 200.881C264.347 211.563 262.143 229.168 262.143 229.168H239.699L233.527 200.881H260.793Z" fill="#89C5CC"/>
<path fill-rule="evenodd" clip-rule="evenodd" d="M285.283 215.109C283.603 212.642 272.277 179.444 272.277 179.444L262.509 180.855C262.509 180.855 278.75 215.425 279.678 217.033C280.883 219.121 279.815 222.552 279.091 224.879C278.98 225.239 278.876 225.572 278.79 225.87C280.309 226.308 280.887 225.439 281.497 224.523C282.186 223.489 282.914 222.394 285.084 223.054C285.922 223.309 286.727 223.636 287.514 223.956C290.232 225.062 292.728 226.078 295.597 223.701C296.052 223.324 296.435 222.092 294.99 221.374C291.39 219.586 286.105 216.315 285.283 215.109ZM201.102 213.393L212.015 199.293L217.234 205.961L205.174 215.554C202.606 221.206 200.984 223.72 200.31 223.096C199.741 222.57 199.872 221.888 199.992 221.259C200.087 220.769 200.174 220.312 199.92 219.987C199.339 219.245 196.764 220.079 194.355 220.975C191.946 221.87 192.349 220.569 192.789 219.858C194.872 217.633 197.643 215.478 201.102 213.393Z" fill="#B28B67"/>
<path fill-rule="evenodd" clip-rule="evenodd" d="M238.606 155.935L234.654 155.816C231.589 178.142 202.406 197.171 201.615 205.467C201.325 208.51 203.654 209.699 202.685 210.75L208.217 213.713C208.927 212.603 210.994 214.16 214.602 212.36C218.21 210.561 242.176 181.358 238.606 155.935Z" fill="#DB2721"/>
<path fill-rule="evenodd" clip-rule="evenodd" d="M245.036 150.445C245.902 150.261 246.753 150.814 246.937 151.681L247.528 154.46C255.576 159.022 275.921 173.176 284.974 203.579C285.925 206.773 285.28 208.646 284.764 210.143C284.411 211.167 284.119 212.014 284.44 212.988L278.129 215.721C278.025 214.984 277.119 214.539 275.949 213.965C274.25 213.131 271.994 212.023 270.841 209.346C269.748 206.808 268.228 203.66 266.45 200.17C267.013 205.044 266.718 209.641 265.229 213.623C261.514 223.558 231.134 217.509 226.786 208.518C224.466 203.72 226.164 199.179 228.411 193.174C231.262 185.55 234.996 175.567 232.514 159.702L231.507 154.961C231.322 154.095 231.875 153.243 232.741 153.059L245.036 150.445Z" fill="#FF4133"/>
<path fill-rule="evenodd" clip-rule="evenodd" d="M109.75 193.361C112.344 194.926 114.893 195.682 116.09 195.373C119.091 194.599 119.366 183.614 117.044 179.283C114.723 174.952 102.788 173.064 102.186 181.645C101.978 184.623 103.227 187.281 105.073 189.45L101.763 204.891H111.378L109.75 193.361Z" fill="#915B3C"/>
<path fill-rule="evenodd" clip-rule="evenodd" d="M104.334 191.382C103.127 186.008 99.6895 182.345 100.214 179.944C100.74 177.542 103.013 176.957 103.013 176.957C103.013 176.957 104.19 172.195 110.599 172.906C117.009 173.617 120.921 176.281 119.232 182.143C117.679 182.143 115.804 181.581 113.212 182.544C111.978 183.003 111.446 185.387 111.446 185.387H110.275C110.275 185.387 108.569 182.558 106.911 183.307C105.254 184.058 106.158 186.951 106.158 186.951L105.581 191.382H104.334Z" fill="#191847"/>
<path fill-rule="evenodd" clip-rule="evenodd" d="M74.9199 255.011C71.3794 255.011 68.5096 257.883 68.5096 261.426V298.314C68.5096 301.858 71.3794 304.73 74.9199 304.73H120.994C124.534 304.73 127.404 301.858 127.404 298.314V261.426C127.404 257.883 124.534 255.011 120.994 255.011H74.9199ZM81.3302 266.238C80.4451 266.238 79.7276 266.956 79.7276 267.841V291.899C79.7276 292.785 80.4451 293.503 81.3302 293.503H114.583C115.468 293.503 116.186 292.785 116.186 291.899V267.841C116.186 266.956 115.468 266.238 114.583 266.238H81.3302Z" fill="#C5CFD6"/>
<path fill-rule="evenodd" clip-rule="evenodd" d="M167.131 302.725C159.232 293.072 153.887 285.915 151.097 281.255C146.319 273.277 142.409 266.177 141.175 263.465C138.232 256.998 147.95 253.97 150.149 256.986C153.477 261.551 160.586 275.918 171.474 300.086L167.131 302.725Z" fill="#B28B67"/>
<path fill-rule="evenodd" clip-rule="evenodd" d="M150.945 299.918L136.244 262.884C133.1 256.134 148.284 251.696 150.594 254.838C155.84 261.97 168.309 290.108 169.872 292.234L150.945 299.918Z" fill="#2F3676"/>
<path fill-rule="evenodd" clip-rule="evenodd" d="M111.792 292.491C114.656 288.311 125.072 274.246 130.745 268.427C132.375 266.755 133.966 265.15 135.47 263.654C139.942 259.209 148.848 266.681 144.384 270.73C133.267 280.815 117.048 294.428 115.693 295.642C113.793 297.343 109.992 295.118 111.792 292.491Z" fill="#915B3C"/>
<path fill-rule="evenodd" clip-rule="evenodd" d="M113.647 290.77C113.37 290.392 112.833 290.302 112.474 290.604C111.819 291.156 110.877 292.005 110.536 292.594C109.995 293.533 109.268 295.516 109.268 295.516C110.357 296.145 128.837 306.824 128.837 306.824C128.837 306.824 131.056 304.741 129.529 303.59C128.001 302.439 127.008 301.649 127.008 301.649L120.253 292.335C120.121 292.152 119.863 292.115 119.685 292.253L118.281 293.334C118.281 293.334 116.35 293.166 115.399 292.616C114.819 292.281 114.112 291.405 113.647 290.77Z" fill="#E4E4E4"/>
<path fill-rule="evenodd" clip-rule="evenodd" d="M164.844 300.834C164.414 300.645 163.904 300.837 163.744 301.278C163.452 302.083 163.061 303.29 163.061 303.97C163.061 305.055 163.422 307.136 163.422 307.136C164.679 307.136 186.019 307.136 186.019 307.136C186.019 307.136 186.9 304.221 185.002 303.989C183.104 303.757 181.849 303.57 181.849 303.57L171.346 298.883C171.14 298.791 170.899 298.888 170.813 299.097L170.137 300.736C170.137 300.736 168.381 301.556 167.282 301.556C166.614 301.556 165.563 301.151 164.844 300.834Z" fill="#E4E4E4"/>
<path fill-rule="evenodd" clip-rule="evenodd" d="M130.954 264.734C130.954 264.734 112.627 261.746 106.402 260.647C94.5741 258.56 91.125 252.19 93.1643 238.292H114.958C119.284 239.542 151.109 253.757 151.109 253.757C154.926 255.653 154.215 261.245 153.518 263.087C153.475 263.2 134.212 296.195 134.212 296.195L116.384 284.829L130.988 266.073C130.988 266.073 131.567 264.907 130.954 264.734Z" fill="#5C63AB"/>
<path fill-rule="evenodd" clip-rule="evenodd" d="M145.304 242.435L132.524 233.043L129.699 240.032L142.355 245.284C145.934 249.492 147.935 251.246 148.359 250.546C148.716 249.956 148.437 249.404 148.179 248.896C147.979 248.499 147.792 248.13 147.93 247.789C148.244 247.011 150.649 247.093 152.927 247.269C155.205 247.444 154.541 246.429 153.992 245.929C151.666 244.535 148.77 243.371 145.304 242.435ZM78.2844 258.984C79.4583 256.6 83.4567 233.367 83.4567 233.367L91.8289 233.4C91.8289 233.4 84.0749 258.452 83.4567 259.985C82.6538 261.976 84.0176 264.869 84.9423 266.831C85.0853 267.135 85.2179 267.416 85.3305 267.668C84.0472 268.243 83.4306 267.548 82.7808 266.816C82.0472 265.989 81.2704 265.114 79.4423 265.965C78.7359 266.294 78.0677 266.682 77.4146 267.062C75.159 268.374 73.0869 269.58 70.268 267.839C69.8213 267.563 69.3313 266.524 70.5148 265.712C73.4623 263.69 77.7103 260.149 78.2844 258.984Z" fill="#915B3C"/>
<path fill-rule="evenodd" clip-rule="evenodd" d="M107.25 198.208L110.714 197.613C123.568 208.726 128.847 230.075 144.603 241.384L140.811 246.089C113.478 242.701 106.703 216.661 107.25 198.208Z" fill="#E87613"/>
<path fill-rule="evenodd" clip-rule="evenodd" d="M92.1475 241.779C92.1475 241.779 112.984 241.779 122.801 241.779C124.202 241.779 123.938 239.755 123.735 238.733C121.399 226.945 112.276 214.238 112.276 197.457L103.434 196.07C96.1206 207.841 93.5918 222.334 92.1475 241.779Z" fill="#DDE3E9"/>
<path fill-rule="evenodd" clip-rule="evenodd" d="M88.7007 250.199C87.3229 253.511 85.9719 256.4 84.6991 258.619H78.125C77.4179 235.732 86.0757 218.121 93.3221 207.502C91.7131 207.387 90.2608 206.713 89.3429 205.056C86.1114 199.22 87.2784 196.006 90.732 194.95C92.6314 194.37 94.4175 194.766 96.5553 195.24C98.3049 195.629 100.29 196.069 102.766 196.07C102.767 196.07 102.768 196.07 102.768 196.07C103.008 196.07 103.227 196.086 103.425 196.117L106.359 196.284C106.359 196.284 118.271 236.689 112.929 250.199H88.7007Z" fill="#FF9B21"/>
<path fill-rule="evenodd" clip-rule="evenodd" d="M88.7007 250.199C90.5084 245.854 92.3617 240.783 94.1454 235.546C94.8097 241.314 95.9154 247.106 97.7564 250.199H88.7007Z" fill="black" fill-opacity="0.1"/>
</svg>
