<svg width="36" height="36" viewBox="0 0 36 36" fill="none" xmlns="http://www.w3.org/2000/svg">
<path fill-rule="evenodd" clip-rule="evenodd" d="M10.4999 4.5C8.84308 4.5 7.49994 5.84315 7.49994 7.5V28.5C7.49994 30.1569 8.84308 31.5 10.4999 31.5C12.1568 31.5 13.4999 30.1569 13.4999 28.5V18.866L22.4999 24.0621V28.4998C22.4999 30.1567 23.8431 31.4998 25.4999 31.4998C27.1568 31.4998 28.4999 30.1567 28.4999 28.4998V24V22.4998V13.1711C28.4999 12.4828 28.0315 11.8829 27.3637 11.7159L24.3637 10.9659C23.417 10.7293 22.4999 11.4453 22.4999 12.4211V17.1339L13.4999 11.9378V7.5C13.4999 5.84315 12.1568 4.5 10.4999 4.5ZM25.0269 4.5H25.8693C27.3221 4.5 28.4999 5.6778 28.4999 7.13068C28.4999 7.20189 28.4972 7.27232 28.4917 7.34186C28.4971 7.39385 28.4999 7.44662 28.4999 7.50005V8.57888C28.4999 9.55474 27.5829 10.2708 26.6361 10.0341L23.6361 9.28409C22.9684 9.11716 22.4999 8.51718 22.4999 7.82888V7.50005C22.4999 7.43013 22.5047 7.36132 22.514 7.29395C22.5047 7.20604 22.4999 7.11696 22.4999 7.02699C22.4999 5.63137 23.6313 4.5 25.0269 4.5Z" fill="#FFC033"/>
</svg>
